<svg xmlns="http://www.w3.org/2000/svg" width="200" height="200" viewBox="0 0 200 200" role="img" aria-label="Unraid Manager">
  <title>Unraid Manager</title>
  <g transform="translate(100,100) scale(0.94) translate(-100,-100)" fill="none">
    <g stroke="#2C2C2A" stroke-width="4" stroke-linecap="round">
      <line x1="100" y1="127" x2="100" y2="153"/>
      <line x1="100" y1="73" x2="100" y2="47"/>
      <line x1="119.6" y1="111.3" x2="148.8" y2="128.2"/>
      <line x1="80.4" y1="111.3" x2="51.2" y2="128.2"/>
      <line x1="80.4" y1="88.7" x2="51.2" y2="71.8"/>
      <line x1="119.6" y1="88.7" x2="148.8" y2="71.8"/>
    </g>
    <g stroke="#2C2C2A" stroke-width="3" fill="none">
      <rect x="151.4" y="120" width="22" height="32" rx="3"/>
      <rect x="89" y="156" width="22" height="32" rx="3"/>
      <rect x="26.6" y="120" width="22" height="32" rx="3"/>
      <rect x="26.6" y="48" width="22" height="32" rx="3"/>
      <rect x="89" y="12" width="22" height="32" rx="3"/>
      <rect x="151.4" y="48" width="22" height="32" rx="3"/>
    </g>
    <g fill="#2C2C2A">
      <rect x="156.4" y="125" width="12" height="3" rx="1"/><circle cx="162.4" cy="144" r="2.5"/>
      <rect x="94" y="161" width="12" height="3" rx="1"/><circle cx="100" cy="180" r="2.5"/>
      <rect x="31.6" y="125" width="12" height="3" rx="1"/><circle cx="37.6" cy="144" r="2.5"/>
      <rect x="31.6" y="53" width="12" height="3" rx="1"/><circle cx="37.6" cy="72" r="2.5"/>
      <rect x="94" y="17" width="12" height="3" rx="1"/><circle cx="100" cy="36" r="2.5"/>
      <rect x="156.4" y="53" width="12" height="3" rx="1"/><circle cx="162.4" cy="72" r="2.5"/>
    </g>
    <rect x="83" y="76" width="34" height="48" rx="4" fill="#EF9F27"/>
    <rect x="91" y="84" width="18" height="4" rx="1.5" fill="#412402"/>
    <circle cx="100" cy="112" r="3.5" fill="#412402"/>
  </g>
</svg>
